<svg viewBox="0 0 800 800" xmlns="http://www.w3.org/2000/svg"><path d="M636.753360170972,360.7822040295421 L636.0454684852721,165.83160985336656 M636.0454684852721,165.83160985336656 L673.1034732791212,191.51343884189873 M673.1034732791212,191.51343884189873 L701.883573173382,220.56345666131415 M701.883573173382,220.56345666131415 L721.5060765737699,252.1042015085285 M721.5060765737699,252.1042015085285 L731.3668990312534,285.18116223850006 M731.3668990312534,285.18116223850006 L731.1567635046434,318.79134920218746 M731.1567635046434,318.79134920218746 L720.8717457964699,351.91355138919994 M720.8717457964699,351.91355138919994 L700.8146460612858,383.53937460825694 M700.8146460612858,383.53937460825694 L671.5869053533588,412.7040950239825 M671.5869053533588,412.7040950239825 L634.0716147108152,438.5162961732648 M634.0716147108152,438.5162961732648 L589.4068006204748,460.1858321845733 M589.4068006204748,460.1858321845733 L538.951340421722,477.0484339819176 M538.951340421722,477.0484339819176 L484.2436554379252,488.58644796222507 M484.2436554379252,488.58644796222507 L426.9538983428372,494.4454892845599 M426.9538983428372,494.4454892845599 L368.83247922874364,494.4454892845599 M368.83247922874364,494.4454892845599 L311.655746773858,488.58644796222507 M311.655746773858,488.58644796222507 L257.1707342203106,477.04842876219027 M257.1707342203106,477.04842876219027 L207.04084313200588,460.1858478383499 M207.04084313200588,460.1858478383499 L162.7942875214868,438.51629617326444 M162.7942875214868,438.51629617326444 L125.7772209091296,412.7040793854204 M125.7772209091296,412.7040793854204 L97.11247981669874,383.53940065695735 M97.11247981669874,383.53940065695735 L77.66584209325924,351.91355138919994 M77.66584209325924,351.91355138919994 L68.02018007201923,318.7913075795441 M68.02018007201923,318.7913075795441 L68.45881921875593,285.18112064453646 M68.45881921875593,285.18112064453646 L78.95812298500812,252.10420150852838 M78.95812298500812,252.10420150852838 L99.18944548850482,220.56348262309712 M99.18944548850482,220.56348262309712 L128.53033187864298,191.51342327411544 M128.53033187864298,191.51342327411544 L166.08404381224875,165.83160985336656 M166.08404381224875,165.83160985336656 L210.70792057334677,144.29246169609542 M210.70792057334677,144.29246169609542 L261.0480222313788,127.54452150547331 M261.0480222313788,127.54452150547331 L315.579841527961,116.09161229363156 M315.579841527961,116.09161229363156 L372.6544377937922,110.2778542603861 M372.6544377937922,110.2778542603861 L430.547352407804,110.2778542603861 M430.547352407804,110.2778542603861 L487.50979785015494,116.09161229363167 M487.50979785015494,116.09161229363167 L541.8205873413444,127.54452668792123 M541.8205873413444,127.54452668792123 L591.8373333631508,144.29244614340166 M591.8373333631508,144.29244614340166 L636.0454684852721,165.83160985336656 M636.753360170972,360.7822040295421 L592.5894519381723,339.22159055665657 M592.5894519381723,339.22159055665657 L542.6227829679339,322.4569860773952 M542.6227829679339,322.4569860773952 L488.3664093981712,310.99265844566764 M488.3664093981712,310.99265844566764 L431.4610810281365,305.1731057591819 M431.4610810281365,305.1731057591819 L373.62626842885663,305.1731057591819 M373.62626842885663,305.1731057591819 L316.6090143127385,310.99265844566753 M316.6090143127385,310.99265844566753 L262.132054468633,322.4569808897834 M262.132054468633,322.4569808897834 L211.84267868231098,339.2216061248421 M211.84267868231098,339.2216061248421 L167.26386328841522,360.7822040295421 M167.26386328841522,360.7822040295421 L129.7481829475464,386.4895801511833 M129.7481829475464,386.4895801511833 L100.43713957084083,415.5685384140925 M100.43713957084083,415.5685384140925 L80.22655447840782,447.14061418895926 M80.22655447840782,447.14061418895926 L69.73823685695947,480.2503954003855 M69.73823685695947,480.2503954003855 L69.30047944598414,513.8939510805295 M69.30047944598414,513.8939510805295 L78.93687128125407,547.0490563834069 M78.93687128125407,547.0490563834069 L98.36434894838953,578.7062613944956 M98.36434894838953,578.7062613944956 L127.00060615708082,607.8998374164116 M127.00060615708082,607.8998374164116 L163.98071995357338,633.7376151245487 M163.98071995357338,633.7376151245487 L208.1829727069702,655.428614756109 M208.1829727069702,655.428614756109 L258.2625604143981,672.307879123671 M258.2625604143981,672.307879123671 L312.6928076534282,683.8573103882061 M312.6928076534282,683.8573103882061 L369.81199272148854,689.7221457396138 M369.81199272148854,689.7221457396138 L427.87485048801375,689.7221457396138 M427.87485048801375,689.7221457396138 L485.10683248513766,683.8573103882061 M485.10683248513766,683.8573103882061 L539.7593036727757,672.3078843485616 M539.7593036727757,672.3078843485616 L590.1638049998483,655.428599086842 M590.1638049998483,655.428599086842 L634.7834741700661,633.737615124548 M634.7834741700661,633.737615124548 L672.2608091909497,607.8998530704644 M672.2608091909497,607.8998530704644 L701.4589332168854,578.7062353199776 M701.4589332168854,578.7062353199776 L721.495644933213,547.0490563834069 M721.495644933213,547.0490563834069 L731.77010680783,513.8939927444821 M731.77010680783,513.8939927444821 L731.9798199279808,480.2504370356588 M731.9798199279808,480.2504370356588 L722.1287006025685,447.1406141889596 M722.1287006025685,447.1406141889596 L702.5257116018272,415.56851242649077 M702.5257116018272,415.56851242649077 L673.7743285926667,386.489595734458 M673.7743285926667,386.489595734458 L636.753360170972,360.7822040295421 M207.68050154882735,527.0510108958904 L347.93491658201094,609.0564716276099 M347.93491658201094,609.0564716276099 L541.070429439246,579.024439347327 M541.070429439246,579.024439347327 L593.595505740071,467.1059722651195 M593.595505740071,467.1059722651195 L453.338803228836,385.3382182861126 M453.338803228836,385.3382182861126 L260.5590131015274,415.2513971450678 M260.5590131015274,415.2513971450678 L207.68050154882735,527.0510108958904 M207.68050154882735,527.0510108958904 L206.79314991334024,375.32831470815586 M347.93491658201094,609.0564716276099 L347.15672788546806,457.2706502328971 M206.79314991334024,375.32831470815586 L347.15672788546806,457.2706502328971 M260.5590131015274,415.2513971450678 L259.7140323577976,263.61493418485554 M259.7140323577976,263.61493418485554 L206.79314991334024,375.32831470815586 M453.338803228836,385.3382182861126 L452.64480440670695,233.72486187495872 M452.64480440670695,233.72486187495872 L259.7140323577976,263.61493418485554 M593.595505740071,467.1059722651195 L593.0106752326777,315.42948797772317 M593.0106752326777,315.42948797772317 L452.64480440670695,233.72486187495872 M541.070429439246,579.024439347327 L540.4437806526769,427.261723166927 M540.4437806526769,427.261723166927 L593.0106752326777,315.42948797772317 M347.15672788546806,457.2706502328971 L540.4437806526769,427.261723166927" stroke="black"  stroke-width="4"  fill="red"/></svg>