<svg viewBox="0 0 800 800" xmlns="http://www.w3.org/2000/svg"><path d="M595.5004334952348,186.78280121664318 L486.91088488904813,123.57528089008383 M486.91088488904813,123.57528089008383 L519.5162386844435,147.28212850685463 M519.5162386844435,147.28212850685463 L546.8463702678611,177.72812474141838 M546.8463702678611,177.72812474141838 L568.065824140848,213.99175094341763 M568.065824140848,213.99175094341763 L582.5243292725615,254.9727450364735 M582.5243292725615,254.9727450364735 L589.7771905970201,299.4253309429873 M589.7771905970201,299.4253309429873 L589.5994921827437,345.996258478555 M589.5994921827437,345.996258478555 L581.9934676865155,393.26613389981316 M581.9934676865155,393.26613389981316 L567.1887845674535,439.7930952350721 M567.1887845674535,439.7930952350721 L545.6358001945962,484.15729700734954 M545.6358001945962,484.15729700734954 L517.991766627614,525.0048298877516 M517.991766627614,525.0048298877516 L485.1005777099144,561.0895422314677 M485.1005777099144,561.0895422314677 L447.9666770094933,591.311490377637 M447.9666770094933,591.311490377637 L407.7239198930256,614.7508454863964 M407.7239198930256,614.7508454863964 L365.60042057184535,630.6959762825463 M365.60042057184535,630.6959762825463 L322.8805860490622,638.6650405842627 M322.8805860490622,638.6650405842627 L280.86563758829436,638.4202675768236 M280.86563758829436,638.4202675768236 L240.8335656139281,629.9746774540945 M240.8335656139281,629.9746774540945 L204.0001564364599,613.5910365762879 M204.0001564364599,613.5910365762879 L171.4822540750177,589.7730370480576 M171.4822540750177,589.7730370480576 L144.2638752125812,559.2494155892971 M144.2638752125812,559.2494155892971 L123.1670386678594,522.9510780528908 M123.1670386678594,522.9510780528908 L108.8272295319307,481.98247525046565 M108.8272295319307,481.98247525046565 L101.67479394569011,437.5878699936308 M101.67479394569011,437.5878699936308 L101.92256047875372,391.1135339308845 M101.92256047875372,391.1135339308845 L109.55984034113192,343.9672082211452 M109.55984034113192,343.9672082211452 L124.35319651930905,297.57585314624765 M124.35319651930905,297.57585314624765 L145.8536204525718,253.34294791607627 M145.8536204525718,253.34294791607627 L173.4102280984584,212.60658198265025 M173.4102280984584,212.60658198265025 L206.18964202021513,176.59948218766868 M206.18964202021513,176.59948218766868 L243.20091784875572,146.41224095616803 M243.20091784875572,146.41224095616803 L283.3249902365775,122.9605008129542 M283.3249902365775,122.9605008129542 L325.348063973099,106.95738910115296 M325.348063973099,106.95738910115296 L367.99781932551787,98.89172669707489 M367.99781932551787,98.89172669707489 L409.9815200195487,99.01295431608867 M409.9815200195487,99.01295431608867 L450.0249410495534,107.32295113140788 M450.0249410495534,107.32295113140788 L486.91088488904813,123.57528089008383 M595.5004334952348,186.78280121664318 L558.6452019707792,170.54013822426182 M558.6452019707792,170.54013822426182 L518.6382682048086,162.2278427283421 M518.6382682048086,162.2278427283421 L476.6957104349249,162.0924012460992 M476.6957104349249,162.0924012460992 L434.09051594887404,170.1323595572629 M434.09051594887404,170.1323595572629 L392.114063502473,186.09912584338826 M392.114063502473,186.09912584338826 L352.03726988817226,209.50495427826115 M352.03726988817226,209.50495427826115 L315.0725037878022,239.6381227549572 M315.0725037878022,239.6381227549572 L282.33743915495165,275.58461260517663 M282.33743915495165,275.58461260517663 L254.82168320896992,316.25568828155605 M254.82168320896992,316.25568828155605 L233.3573764469779,360.4205697732969 M233.3573764469779,360.4205697732969 L218.59433537623363,406.7432122649807 M218.59433537623363,406.7432122649807 L210.98062902908353,453.822222991199 M210.98062902908353,453.822222991199 L210.74898381501384,500.2326585808458 M210.74898381501384,500.2326585808458 L217.90958481814084,544.5687159032414 M217.90958481814084,544.5687159032414 L232.24937391833063,585.4858758169198 M232.24937391833063,585.4858758169198 L253.33794856762108,621.7414756042142 M253.33794856762108,621.7414756042142 L280.54007451383586,652.2323488251061 M280.54007451383586,652.2323488251061 L313.03424905257623,676.0285840914519 M313.03424905257623,676.0285840914519 L349.83710625714633,692.4021431944002 M349.83710625714633,692.4021431944002 L389.832780684173,700.8496374191936 M389.832780684173,700.8496374191936 L431.806552165246,701.1082733029252 M431.806552165246,701.1082733029252 L474.4816686142734,693.1646460794609 M474.4816686142734,693.1646460794609 L516.5583176926327,677.2557285082344 M516.5583176926327,677.2557285082344 L556.7534974281555,653.8622889926673 M556.7534974281555,653.8622889926673 L593.8405600704771,623.6945553375135 M593.8405600704771,623.6945553375135 L626.6870807858097,587.6707152090048 M626.6870807858097,587.6707152090048 L654.2900091429674,546.8888337922756 M654.2900091429674,546.8888337922756 L675.8066902853989,502.5930559077734 M675.8066902853989,502.5930559077734 L690.5809906208904,456.13521447810933 M690.5809906208904,456.13521447810933 L698.1634830196956,408.93300925053694 M698.1634830196956,408.93300925053694 L698.32520605431,362.4262427321094 M698.32520605431,362.4262427321094 L691.064408278525,318.0323369385138 M691.064408278525,318.0323369385138 L676.606233027725,277.10278837246466 M676.606233027725,277.10278837246466 L655.3953620415468,240.88175391907845 M655.3953620415468,240.88175391907845 L628.08178023104,210.4682309361785 M628.08178023104,210.4682309361785 L595.5004334952348,186.78280121664318 M349.20777026386526,554.1691124810839 L462.4128169150683,583.3033208025452 M462.4128169150683,583.3033208025452 L569.5944546465396,497.98983260460034 M569.5944546465396,497.98983260460034 L589.887283845688,362.51106741095293 M589.887283845688,362.51106741095293 L508.053795994553,279.0397253351394 M508.053795994553,279.0397253351394 L385.8522776256624,310.32295641732014 M385.8522776256624,310.32295641732014 L315.19908390904743,432.6978776515034 M315.19908390904743,432.6978776515034 L349.20777026386526,554.1691124810839 M349.20777026386526,554.1691124810839 L272.9739075849043,510.3574051612581 M462.4128169150683,583.3033208025452 L386.2498426892809,539.4927800609098 M272.9739075849043,510.3574051612581 L386.2498426892809,539.4927800609098 M315.19908390904743,432.6978776515034 L238.97091983228935,388.77729074226147 M238.97091983228935,388.77729074226147 L272.9739075849043,510.3574051612581 M385.8522776256624,310.32295641732014 L309.7018515747576,266.26772329762025 M309.7018515747576,266.26772329762025 L238.97091983228935,388.77729074226147 M508.053795994553,279.0397253351394 L431.99481313293484,234.9251172864575 M431.99481313293484,234.9251172864575 L309.7018515747576,266.26772329762025 M589.887283845688,362.51106741095293 L513.864755497005,318.45726727445935 M513.864755497005,318.45726727445935 L431.99481313293484,234.9251172864575 M569.5944546465396,497.98983260460034 L493.5256595031706,454.0714932516457 M493.5256595031706,454.0714932516457 L513.864755497005,318.45726727445935 M386.2498426892809,539.4927800609098 L493.5256595031706,454.0714932516457" stroke="black"  stroke-width="4"  fill="red"/></svg>