<svg viewBox="0 0 800 800" xmlns="http://www.w3.org/2000/svg"><path d="M489.28884291460986,79.1089710885364 L309.7784757013707,182.44949134018282 M309.7784757013707,182.44949134018282 L350.2697170959524,209.90756670075842 M350.2697170959524,209.90756670075842 L389.55279761106374,244.73918849303283 M389.55279761106374,244.73918849303283 L426.42689391325916,285.8841078869783 M426.42689391325916,285.8841078869783 L459.76415452513464,332.0870832287688 M459.76415452513464,332.0870832287688 L488.5448365538199,381.9366867789362 M488.5448365538199,381.9366867789362 L511.88915662429866,433.90908903229786 M511.88915662429866,433.90908903229786 L529.0846539050208,486.4154528685656 M529.0846539050208,486.4154528685656 L539.6081829745865,537.8514094296988 M539.6081829745865,537.8514094296988 L543.1419530785815,586.6468907884625 M543.1419530785815,586.6468907884625 L539.5828825079825,631.3146921195782 M539.5828825079825,631.3146921195782 L529.0452555390408,670.4962314932372 M529.0452555390408,670.4962314932372 L511.85645810721616,703.0029583815099 M511.85645810721616,703.0029583815099 L488.54621991388916,727.852281443059 M488.54621991388916,727.852281443059 L459.82955419571925,744.2967242841548 M459.82955419571925,744.2967242841548 L426.5842568044021,751.8457900265023 M426.5842568044021,751.8457900265023 L389.82361493586933,750.279752098231 M389.82361493586933,750.279752098231 L350.66520257918233,739.6551020503043 M350.66520257918233,739.6551020503043 L310.2968884024193,720.3018567062148 M310.2968884024193,720.3018567062148 L269.9409623078554,692.8125873964264 M269.9409623078554,692.8125873964264 L230.8175196440694,658.0239304477387 M230.8175196440694,658.0239304477387 L194.10812900451816,616.9909527311075 M194.10812900451816,616.9909527311075 L160.92077590616012,570.9553939887876 M160.92077590616012,570.9553939887876 L132.25712196708065,521.3084890357301 M132.25712196708065,521.3084890357301 L108.98283516799972,469.54961879702773 M108.98283516799972,469.54961879702773 L91.80192939225196,417.2418650874142 M91.80192939225196,417.2418650874142 L81.23579004303934,365.9656413827277 M81.23579004303934,365.9656413827277 L77.60734753657272,317.27174953669254 M77.60734753657272,317.27174953669254 L81.03110251129971,272.63514127962077 M81.03110251129971,272.63514127962077 L91.40909184181913,233.4106363829 M91.40909184181913,233.4106363829 L108.43318414691265,200.7919677011932 M108.43318414691265,200.7919677011932 L131.59351555028292,175.77522847511753 M131.59351555028292,175.77522847511753 L160.19315366083805,159.12808787174473 M160.19315366083805,159.12808787174473 L193.36841779564963,151.3654909588319 M193.36841779564963,151.3654909588319 L230.1144677906888,152.7329191665034 M230.1144677906888,152.7329191665034 L269.31548973212847,163.19783620262535 M269.31548973212847,163.19783620262535 L309.7784757013707,182.44949134018282 M489.28884291460986,79.1089710885364 L448.82184616548665,59.90695297983723 M448.82184616548665,59.90695297983723 L409.60901630675664,49.48555303013194 M409.60901630675664,49.48555303013194 L372.8437259655949,48.1542099734977 M372.8437259655949,48.1542099734977 L339.6423827526775,55.94437934667587 M339.6423827526775,55.94437934667587 L311.010630299636,72.60976104816677 M311.010630299636,72.60976104816677 L287.8131368123398,97.6348760627825 M287.8131368123398,97.6348760627825 L270.74797484679544,130.25181977051773 M270.74797484679544,130.25181977051773 L260.32626507099445,169.46456676736187 M260.32626507099445,169.46456676736187 L256.85747306936173,214.07975152454384 M256.85747306936173,214.07975152454384 L260.44093233674823,262.74320863812227 M260.44093233674823,262.74320863812227 L270.963506914611,313.9809075683975 M270.963506914611,313.9809075683975 L288.1035841811183,366.24320686522134 M288.1035841811183,366.24320686522134 L311.3410102963662,417.95105870105954 M311.3410102963662,417.95105870105954 L339.9728804105079,467.54291245446586 M339.9728804105079,467.54291245446586 L373.13448061784163,513.5210397067536 M373.13448061784163,513.5210397067536 L409.824920835823,554.495931690789 M409.824920835823,554.495931690789 L448.9367824519688,589.2275980535721 M448.9367824519688,589.2275980535721 L489.2888429146111,616.662693369346 M489.2888429146111,616.662693369346 L529.6611223096812,635.9662237540776 M529.6611223096812,635.9662237540776 L568.8312122490206,646.5471318357874 M568.8312122490206,646.5471318357874 L605.6108950764985,648.0767399077976 M605.6108950764985,648.0767399077976 L638.8820271554312,640.4996787509829 M638.8820271554312,640.4996787509829 L667.6305472992075,624.036544622527 M667.6305472992075,624.036544622527 L690.977703482622,599.1784226469634 M690.977703482622,599.1784226469634 L708.2073717450056,566.6730757056897 M708.2073717450056,566.6730757056897 L718.788589574928,527.5030689188999 M718.788589574928,527.5030689188999 L722.3926524634273,482.8566126649457 M722.3926524634273,482.8566126649457 L718.9039111577099,434.0916439658674 M718.9039111577099,434.0916439658674 L708.4240771921394,382.69443705762654 M708.4240771921394,382.69443705762654 L691.2696078071563,330.23387234062193 M691.2696078071563,330.23387234062193 L667.9623928119539,278.3129114475596 M667.9623928119539,278.3129114475596 L639.213754527225,228.5188092899893 M639.213754527225,228.5188092899893 L605.9024909025359,182.3736885661473 M605.9024909025359,182.3736885661473 L569.0475438532237,141.2871999318071 M569.0475438532237,141.2871999318071 L529.7761739699075,106.51279403605969 M529.7761739699075,106.51279403605969 L489.28884291460986,79.1089710885364 M459.4365809352842,482.0636395071732 L573.0054430959818,517.8252038192785 M573.0054430959818,517.8252038192785 L623.6895573827707,425.870354150281 M623.6895573827707,425.870354150281 L573.114658121164,275.2954480049512 M573.114658121164,275.2954480049512 L459.3880441638668,179.74049465018877 M459.3880441638668,179.74049465018877 L368.3459677027958,211.19441993078493 M368.3459677027958,211.19441993078493 L368.43332910044313,345.70276657907675 M368.43332910044313,345.70276657907675 L459.4365809352842,482.0636395071732 M459.4365809352842,482.0636395071732 L334.10481461403134,554.5146019757682 M573.0054430959818,517.8252038192785 L447.65346744506195,590.3667762856161 M334.10481461403134,554.5146019757682 L447.65346744506195,590.3667762856161 M368.43332910044313,345.70276657907675 L243.0451522269233,418.0394129789196 M243.0451522269233,418.0394129789196 L334.10481461403134,554.5146019757682 M368.3459677027958,211.19441993078493 L242.86701446133864,283.4787378859716 M242.86701446133864,283.4787378859716 L243.0451522269233,418.0394129789196 M459.3880441638668,179.74049465018877 L333.8523044933444,252.0738758268269 M333.8523044933444,252.0738758268269 L242.86701446133864,283.4787378859716 M573.114658121164,275.2954480049512 L447.59910842672633,347.7427279278077 M447.59910842672633,347.7427279278077 L333.8523044933444,252.0738758268269 M623.6895573827707,425.870354150281 L498.25587071758827,498.410427033343 M498.25587071758827,498.410427033343 L447.59910842672633,347.7427279278077 M447.65346744506195,590.3667762856161 L498.25587071758827,498.410427033343" stroke="black"  stroke-width="4"  fill="red"/></svg>